<svg id="my-svg" width="2139" xmlns="http://www.w3.org/2000/svg" xmlns:xlink="http://www.w3.org/1999/xlink" height="1258" viewBox="-55 -35 2139 1258" role="graphics-document document" aria-roledescription="sequence" style="background-color: white;"><g><rect x="1809" y="1115" fill="#eaeaea" stroke="#666" width="200" height="72" name="LLM" rx="3" ry="3" class="actor actor-bottom"/><text x="1909" y="1151" dominant-baseline="central" alignment-baseline="central" class="actor actor-box" style="text-anchor: middle; font-size: 28px; font-weight: 400;"><tspan x="1909" dy="0">Vision LLM</tspan></text></g><g><rect x="1519" y="1115" fill="#eaeaea" stroke="#666" width="200" height="72" name="Orch" rx="3" ry="3" class="actor actor-bottom"/><text x="1619" y="1151" dominant-baseline="central" alignment-baseline="central" class="actor actor-box" style="text-anchor: middle; font-size: 28px; font-weight: 400;"><tspan x="1619" dy="0">run_security_audit</tspan></text></g><g><rect x="1229" y="1115" fill="#eaeaea" stroke="#666" width="200" height="72" name="CISA" rx="3" ry="3" class="actor actor-bottom"/><text x="1329" y="1151" dominant-baseline="central" alignment-baseline="central" class="actor actor-box" style="text-anchor: middle; font-size: 28px; font-weight: 400;"><tspan x="1329" dy="0">CISA KEV API</tspan></text></g><g><rect x="939" y="1115" fill="#eaeaea" stroke="#666" width="200" height="72" name="SRV" rx="3" ry="3" class="actor actor-bottom"/><text x="1039" y="1151" dominant-baseline="central" alignment-baseline="central" class="actor actor-box" style="text-anchor: middle; font-size: 28px; font-weight: 400;"><tspan x="1039" dy="0">FastMCP Server</tspan></text></g><g><rect x="649" y="1115" fill="#eaeaea" stroke="#666" width="200" height="72" name="Cache" rx="3" ry="3" class="actor actor-bottom"/><text x="749" y="1151" dominant-baseline="central" alignment-baseline="central" class="actor actor-box" style="text-anchor: middle; font-size: 28px; font-weight: 400;"><tspan x="749" dy="0">_load_mcp_context</tspan></text></g><g><rect x="359" y="1115" fill="#eaeaea" stroke="#666" width="200" height="72" name="UI" rx="3" ry="3" class="actor actor-bottom"/><text x="459" y="1151" dominant-baseline="central" alignment-baseline="central" class="actor actor-box" style="text-anchor: middle; font-size: 28px; font-weight: 400;"><tspan x="459" dy="0">main()</tspan></text></g><g/><g><line id="actor6" x1="1909" y1="72" x2="1909" y2="1115" class="actor-line 200" stroke-width="0.5px" stroke="#999" name="LLM"/><g id="root-6"><rect x="1809" y="0" fill="#eaeaea" stroke="#666" width="200" height="72" name="LLM" rx="3" ry="3" class="actor actor-top"/><text x="1909" y="36" dominant-baseline="central" alignment-baseline="central" class="actor actor-box" style="text-anchor: middle; font-size: 28px; font-weight: 400;"><tspan x="1909" dy="0">Vision LLM</tspan></text></g></g><g><line id="actor5" x1="1619" y1="72" x2="1619" y2="1115" class="actor-line 200" stroke-width="0.5px" stroke="#999" name="Orch"/><g id="root-5"><rect x="1519" y="0" fill="#eaeaea" stroke="#666" width="200" height="72" name="Orch" rx="3" ry="3" class="actor actor-top"/><text x="1619" y="36" dominant-baseline="central" alignment-baseline="central" class="actor actor-box" style="text-anchor: middle; font-size: 28px; font-weight: 400;"><tspan x="1619" dy="0">run_security_audit</tspan></text></g></g><g><line id="actor4" x1="1329" y1="72" x2="1329" y2="1115" class="actor-line 200" stroke-width="0.5px" stroke="#999" name="CISA"/><g id="root-4"><rect x="1229" y="0" fill="#eaeaea" stroke="#666" width="200" height="72" name="CISA" rx="3" ry="3" class="actor actor-top"/><text x="1329" y="36" dominant-baseline="central" alignment-baseline="central" class="actor actor-box" style="text-anchor: middle; font-size: 28px; font-weight: 400;"><tspan x="1329" dy="0">CISA KEV API</tspan></text></g></g><g><line id="actor3" x1="1039" y1="72" x2="1039" y2="1115" class="actor-line 200" stroke-width="0.5px" stroke="#999" name="SRV"/><g id="root-3"><rect x="939" y="0" fill="#eaeaea" stroke="#666" width="200" height="72" name="SRV" rx="3" ry="3" class="actor actor-top"/><text x="1039" y="36" dominant-baseline="central" alignment-baseline="central" class="actor actor-box" style="text-anchor: middle; font-size: 28px; font-weight: 400;"><tspan x="1039" dy="0">FastMCP Server</tspan></text></g></g><g><line id="actor2" x1="749" y1="72" x2="749" y2="1115" class="actor-line 200" stroke-width="0.5px" stroke="#999" name="Cache"/><g id="root-2"><rect x="649" y="0" fill="#eaeaea" stroke="#666" width="200" height="72" name="Cache" rx="3" ry="3" class="actor actor-top"/><text x="749" y="36" dominant-baseline="central" alignment-baseline="central" class="actor actor-box" style="text-anchor: middle; font-size: 28px; font-weight: 400;"><tspan x="749" dy="0">_load_mcp_context</tspan></text></g></g><g><line id="actor1" x1="459" y1="72" x2="459" y2="1115" class="actor-line 200" stroke-width="0.5px" stroke="#999" name="UI"/><g id="root-1"><rect x="359" y="0" fill="#eaeaea" stroke="#666" width="200" height="72" name="UI" rx="3" ry="3" class="actor actor-top"/><text x="459" y="36" dominant-baseline="central" alignment-baseline="central" class="actor actor-box" style="text-anchor: middle; font-size: 28px; font-weight: 400;"><tspan x="459" dy="0">main()</tspan></text></g></g><g><line id="actor0" x1="100" y1="80" x2="100" y2="1115" class="actor-line 200" stroke-width="0.5px" stroke="#999" name="U"/></g><style>#my-svg{font-family:ui-sans-serif,system-ui,-apple-system,'Segoe UI',Roboto,sans-serif;font-size:28px;fill:#1e3a8a;}@keyframes edge-animation-frame{from{stroke-dashoffset:0;}}@keyframes dash{to{stroke-dashoffset:0;}}#my-svg .edge-animation-slow{stroke-dasharray:9,5!important;stroke-dashoffset:900;animation:dash 50s linear infinite;stroke-linecap:round;}#my-svg .edge-animation-fast{stroke-dasharray:9,5!important;stroke-dashoffset:900;animation:dash 20s linear infinite;stroke-linecap:round;}#my-svg .error-icon{fill:#d1fae5;}#my-svg .error-text{fill:#064e3b;stroke:#064e3b;}#my-svg .edge-thickness-normal{stroke-width:1px;}#my-svg .edge-thickness-thick{stroke-width:3.5px;}#my-svg .edge-pattern-solid{stroke-dasharray:0;}#my-svg .edge-thickness-invisible{stroke-width:0;fill:none;}#my-svg .edge-pattern-dashed{stroke-dasharray:3;}#my-svg .edge-pattern-dotted{stroke-dasharray:2;}#my-svg .marker{fill:#64748b;stroke:#64748b;}#my-svg .marker.cross{stroke:#64748b;}#my-svg svg{font-family:ui-sans-serif,system-ui,-apple-system,'Segoe UI',Roboto,sans-serif;font-size:28px;}#my-svg p{margin:0;}#my-svg .actor{stroke:#2563eb;fill:#dbeafe;}#my-svg text.actor&gt;tspan{fill:#1e3a8a;stroke:none;}#my-svg .actor-line{stroke:#94a3b8;}#my-svg .innerArc{stroke-width:1.5;stroke-dasharray:none;}#my-svg .messageLine0{stroke-width:1.5;stroke-dasharray:none;stroke:#2563eb;}#my-svg .messageLine1{stroke-width:1.5;stroke-dasharray:2,2;stroke:#2563eb;}#my-svg #arrowhead path{fill:#2563eb;stroke:#2563eb;}#my-svg .sequenceNumber{fill:#ffffff;}#my-svg #sequencenumber{fill:#2563eb;}#my-svg #crosshead path{fill:#2563eb;stroke:#2563eb;}#my-svg .messageText{fill:#0f172a;stroke:none;}#my-svg .labelBox{stroke:#94a3b8;fill:#f1f5f9;}#my-svg .labelText,#my-svg .labelText&gt;tspan{fill:#0f172a;stroke:none;}#my-svg .loopText,#my-svg .loopText&gt;tspan{fill:#0f172a;stroke:none;}#my-svg .loopLine{stroke-width:2px;stroke-dasharray:2,2;stroke:#94a3b8;fill:#94a3b8;}#my-svg .note{stroke:#7c3aed;fill:#ede9fe;}#my-svg .noteText,#my-svg .noteText&gt;tspan{fill:#4c1d95;stroke:none;}#my-svg .activation0{fill:#eff6ff;stroke:#2563eb;}#my-svg .activation1{fill:#eff6ff;stroke:#2563eb;}#my-svg .activation2{fill:#eff6ff;stroke:#2563eb;}#my-svg .actorPopupMenu{position:absolute;}#my-svg .actorPopupMenuPanel{position:absolute;fill:#dbeafe;box-shadow:0px 8px 16px 0px rgba(0,0,0,0.2);filter:drop-shadow(3px 5px 2px rgb(0 0 0 / 0.4));}#my-svg .actor-man line{stroke:#2563eb;fill:#dbeafe;}#my-svg .actor-man circle,#my-svg line{stroke:#2563eb;fill:#dbeafe;stroke-width:2px;}#my-svg :root{--mermaid-font-family:"trebuchet ms",verdana,arial,sans-serif;}
  /* -- Dynamic: stroke-width + animation speed -- */
  #my-svg .edge-animation-fast {
    stroke-width: 3px !important;
    animation-duration: 4s !important;
  }
  .messageLine0, .messageLine1, .actor-line {
    stroke-width: 3px !important;
  }

  /* ── Drop shadows ── */
  .node rect, .node polygon, .node circle, .node ellipse {
    filter: drop-shadow(0 2px 8px rgba(37, 99, 235, 0.22))
            drop-shadow(0 1px 3px rgba(37, 99, 235, 0.08));
  }
  .cluster rect {
    filter: drop-shadow(0 3px 10px rgba(0, 0, 0, 0.08));
  }
  .actor {
    filter: drop-shadow(0 2px 8px rgba(37, 99, 235, 0.28));
  }
  .note rect {
    filter: drop-shadow(0 2px 8px rgba(124, 58, 237, 0.22));
  }

  /* ── Sequence: forward message arrows ── */
  .messageLine0 {
    stroke-dasharray: 10 4 !important;
    animation: msgFlow 1.6s linear infinite;
  }
  @keyframes msgFlow {
    from { stroke-dashoffset: 42; }
    to   { stroke-dashoffset: 0;  }
  }

  /* ── Sequence: return / dashed arrows ── */
  .messageLine1 {
    stroke-dasharray: 8 4 !important;
    animation: retFlow 2.2s linear infinite;
  }
  @keyframes retFlow {
    from { stroke-dashoffset: 36; }
    to   { stroke-dashoffset: 0;  }
  }

  /* ── Sequence: actor lifeline flow ── */
  .actor-line {
    stroke-dasharray: 6 3 !important;
    animation: lifeFlow 2s linear infinite;
  }
  @keyframes lifeFlow {
    from { stroke-dashoffset: 18; }
    to   { stroke-dashoffset: 0;  }
  }

  /* ── Node subtle pulse ── */
  .node rect, .node polygon, .node circle {
    animation: nodePulse 3.5s ease-in-out infinite;
  }
  @keyframes nodePulse {
    0%, 100% { opacity: 1;    }
    50%      { opacity: 0.88; }
  }

  /* ── Actor subtle pulse ── */
  .actor {
    animation: actorPulse 3.5s ease-in-out infinite;
  }
  @keyframes actorPulse {
    0%, 100% { opacity: 1;    }
    50%      { opacity: 0.85; }
  }

  /* ── Sequence: lift message labels above connector lines ── */
  /* White halo painted behind each character so lines don't bleed through */
  .messageText {
    paint-order: stroke fill;
    stroke: #ffffff !important;
    stroke-width: 6px !important;
    stroke-linejoin: round !important;
  }
  /* Note text same treatment */
  .noteText {
    paint-order: stroke fill;
    stroke: #ede9fe !important;
    stroke-width: 5px !important;
    stroke-linejoin: round !important;
  }

  </style><g/><defs><symbol id="computer" width="24" height="24"><path transform="scale(.5)" d="M2 2v13h20v-13h-20zm18 11h-16v-9h16v9zm-10.228 6l.466-1h3.524l.467 1h-4.457zm14.228 3h-24l2-6h2.104l-1.33 4h18.45l-1.297-4h2.073l2 6zm-5-10h-14v-7h14v7z"/></symbol></defs><defs><symbol id="database" fill-rule="evenodd" clip-rule="evenodd"><path transform="scale(.5)" d="M12.258.001l.256.004.255.005.253.008.251.01.249.012.247.015.246.016.242.019.241.02.239.023.236.024.233.027.231.028.229.031.225.032.223.034.22.036.217.038.214.04.211.041.208.043.205.045.201.046.198.048.194.05.191.051.187.053.183.054.18.056.175.057.172.059.168.06.163.061.16.063.155.064.15.066.074.033.073.033.071.034.07.034.069.035.068.035.067.035.066.035.064.036.064.036.062.036.06.036.06.037.058.037.058.037.055.038.055.038.053.038.052.038.051.039.05.039.048.039.047.039.045.04.044.04.043.04.041.04.04.041.039.041.037.041.036.041.034.041.033.042.032.042.03.042.029.042.027.042.026.043.024.043.023.043.021.043.02.043.018.044.017.043.015.044.013.044.012.044.011.045.009.044.007.045.006.045.004.045.002.045.001.045v17l-.001.045-.002.045-.004.045-.006.045-.007.045-.009.044-.011.045-.012.044-.013.044-.015.044-.017.043-.018.044-.02.043-.021.043-.023.043-.024.043-.026.043-.027.042-.029.042-.03.042-.032.042-.033.042-.034.041-.036.041-.037.041-.039.041-.04.041-.041.04-.043.04-.044.04-.045.04-.047.039-.048.039-.05.039-.051.039-.052.038-.053.038-.055.038-.055.038-.058.037-.058.037-.06.037-.06.036-.062.036-.064.036-.064.036-.066.035-.067.035-.068.035-.069.035-.07.034-.071.034-.073.033-.074.033-.15.066-.155.064-.16.063-.163.061-.168.06-.172.059-.175.057-.18.056-.183.054-.187.053-.191.051-.194.05-.198.048-.201.046-.205.045-.208.043-.211.041-.214.04-.217.038-.22.036-.223.034-.225.032-.229.031-.231.028-.233.027-.236.024-.239.023-.241.02-.242.019-.246.016-.247.015-.249.012-.251.01-.253.008-.255.005-.256.004-.258.001-.258-.001-.256-.004-.255-.005-.253-.008-.251-.01-.249-.012-.247-.015-.245-.016-.243-.019-.241-.02-.238-.023-.236-.024-.234-.027-.231-.028-.228-.031-.226-.032-.223-.034-.22-.036-.217-.038-.214-.04-.211-.041-.208-.043-.204-.045-.201-.046-.198-.048-.195-.05-.19-.051-.187-.053-.184-.054-.179-.056-.176-.057-.172-.059-.167-.06-.164-.061-.159-.063-.155-.064-.151-.066-.074-.033-.072-.033-.072-.034-.07-.034-.069-.035-.068-.035-.067-.035-.066-.035-.064-.036-.063-.036-.062-.036-.061-.036-.06-.037-.058-.037-.057-.037-.056-.038-.055-.038-.053-.038-.052-.038-.051-.039-.049-.039-.049-.039-.046-.039-.046-.04-.044-.04-.043-.04-.041-.04-.04-.041-.039-.041-.037-.041-.036-.041-.034-.041-.033-.042-.032-.042-.03-.042-.029-.042-.027-.042-.026-.043-.024-.043-.023-.043-.021-.043-.02-.043-.018-.044-.017-.043-.015-.044-.013-.044-.012-.044-.011-.045-.009-.044-.007-.045-.006-.045-.004-.045-.002-.045-.001-.045v-17l.001-.045.002-.045.004-.045.006-.045.007-.045.009-.044.011-.045.012-.044.013-.044.015-.044.017-.043.018-.044.02-.043.021-.043.023-.043.024-.043.026-.043.027-.042.029-.042.03-.042.032-.042.033-.042.034-.041.036-.041.037-.041.039-.041.04-.041.041-.04.043-.04.044-.04.046-.04.046-.039.049-.039.049-.039.051-.039.052-.038.053-.038.055-.038.056-.038.057-.037.058-.037.06-.037.061-.036.062-.036.063-.036.064-.036.066-.035.067-.035.068-.035.069-.035.07-.034.072-.034.072-.033.074-.033.151-.066.155-.064.159-.063.164-.061.167-.06.172-.059.176-.057.179-.056.184-.054.187-.053.19-.051.195-.05.198-.048.201-.046.204-.045.208-.043.211-.041.214-.04.217-.038.22-.036.223-.034.226-.032.228-.031.231-.028.234-.027.236-.024.238-.023.241-.02.243-.019.245-.016.247-.015.249-.012.251-.01.253-.008.255-.005.256-.004.258-.001.258.001zm-9.258 20.499v.01l.001.021.003.021.004.022.005.021.006.022.007.022.009.023.01.022.011.023.012.023.013.023.015.023.016.024.017.023.018.024.019.024.021.024.022.025.023.024.024.025.052.049.056.05.061.051.066.051.07.051.075.051.079.052.084.052.088.052.092.052.097.052.102.051.105.052.11.052.114.051.119.051.123.051.127.05.131.05.135.05.139.048.144.049.147.047.152.047.155.047.16.045.163.045.167.043.171.043.176.041.178.041.183.039.187.039.19.037.194.035.197.035.202.033.204.031.209.03.212.029.216.027.219.025.222.024.226.021.23.02.233.018.236.016.24.015.243.012.246.01.249.008.253.005.256.004.259.001.26-.001.257-.004.254-.005.25-.008.247-.011.244-.012.241-.014.237-.016.233-.018.231-.021.226-.021.224-.024.22-.026.216-.027.212-.028.21-.031.205-.031.202-.034.198-.034.194-.036.191-.037.187-.039.183-.04.179-.04.175-.042.172-.043.168-.044.163-.045.16-.046.155-.046.152-.047.148-.048.143-.049.139-.049.136-.05.131-.05.126-.05.123-.051.118-.052.114-.051.11-.052.106-.052.101-.052.096-.052.092-.052.088-.053.083-.051.079-.052.074-.052.07-.051.065-.051.06-.051.056-.05.051-.05.023-.024.023-.025.021-.024.02-.024.019-.024.018-.024.017-.024.015-.023.014-.024.013-.023.012-.023.01-.023.01-.022.008-.022.006-.022.006-.022.004-.022.004-.021.001-.021.001-.021v-4.127l-.077.055-.08.053-.083.054-.085.053-.087.052-.09.052-.093.051-.095.05-.097.05-.1.049-.102.049-.105.048-.106.047-.109.047-.111.046-.114.045-.115.045-.118.044-.12.043-.122.042-.124.042-.126.041-.128.04-.13.04-.132.038-.134.038-.135.037-.138.037-.139.035-.142.035-.143.034-.144.033-.147.032-.148.031-.15.03-.151.03-.153.029-.154.027-.156.027-.158.026-.159.025-.161.024-.162.023-.163.022-.165.021-.166.02-.167.019-.169.018-.169.017-.171.016-.173.015-.173.014-.175.013-.175.012-.177.011-.178.01-.179.008-.179.008-.181.006-.182.005-.182.004-.184.003-.184.002h-.37l-.184-.002-.184-.003-.182-.004-.182-.005-.181-.006-.179-.008-.179-.008-.178-.01-.176-.011-.176-.012-.175-.013-.173-.014-.172-.015-.171-.016-.17-.017-.169-.018-.167-.019-.166-.02-.165-.021-.163-.022-.162-.023-.161-.024-.159-.025-.157-.026-.156-.027-.155-.027-.153-.029-.151-.03-.15-.03-.148-.031-.146-.032-.145-.033-.143-.034-.141-.035-.14-.035-.137-.037-.136-.037-.134-.038-.132-.038-.13-.04-.128-.04-.126-.041-.124-.042-.122-.042-.12-.044-.117-.043-.116-.045-.113-.045-.112-.046-.109-.047-.106-.047-.105-.048-.102-.049-.1-.049-.097-.05-.095-.05-.093-.052-.09-.051-.087-.052-.085-.053-.083-.054-.08-.054-.077-.054v4.127zm0-5.654v.011l.001.021.003.021.004.021.005.022.006.022.007.022.009.022.01.022.011.023.012.023.013.023.015.024.016.023.017.024.018.024.019.024.021.024.022.024.023.025.024.024.052.05.056.05.061.05.066.051.07.051.075.052.079.051.084.052.088.052.092.052.097.052.102.052.105.052.11.051.114.051.119.052.123.05.127.051.131.05.135.049.139.049.144.048.147.048.152.047.155.046.16.045.163.045.167.044.171.042.176.042.178.04.183.04.187.038.19.037.194.036.197.034.202.033.204.032.209.03.212.028.216.027.219.025.222.024.226.022.23.02.233.018.236.016.24.014.243.012.246.01.249.008.253.006.256.003.259.001.26-.001.257-.003.254-.006.25-.008.247-.01.244-.012.241-.015.237-.016.233-.018.231-.02.226-.022.224-.024.22-.025.216-.027.212-.029.21-.03.205-.032.202-.033.198-.035.194-.036.191-.037.187-.039.183-.039.179-.041.175-.042.172-.043.168-.044.163-.045.16-.045.155-.047.152-.047.148-.048.143-.048.139-.05.136-.049.131-.05.126-.051.123-.051.118-.051.114-.052.11-.052.106-.052.101-.052.096-.052.092-.052.088-.052.083-.052.079-.052.074-.051.07-.052.065-.051.06-.05.056-.051.051-.049.023-.025.023-.024.021-.025.02-.024.019-.024.018-.024.017-.024.015-.023.014-.023.013-.024.012-.022.01-.023.01-.023.008-.022.006-.022.006-.022.004-.021.004-.022.001-.021.001-.021v-4.139l-.077.054-.08.054-.083.054-.085.052-.087.053-.09.051-.093.051-.095.051-.097.05-.1.049-.102.049-.105.048-.106.047-.109.047-.111.046-.114.045-.115.044-.118.044-.12.044-.122.042-.124.042-.126.041-.128.04-.13.039-.132.039-.134.038-.135.037-.138.036-.139.036-.142.035-.143.033-.144.033-.147.033-.148.031-.15.03-.151.03-.153.028-.154.028-.156.027-.158.026-.159.025-.161.024-.162.023-.163.022-.165.021-.166.02-.167.019-.169.018-.169.017-.171.016-.173.015-.173.014-.175.013-.175.012-.177.011-.178.009-.179.009-.179.007-.181.007-.182.005-.182.004-.184.003-.184.002h-.37l-.184-.002-.184-.003-.182-.004-.182-.005-.181-.007-.179-.007-.179-.009-.178-.009-.176-.011-.176-.012-.175-.013-.173-.014-.172-.015-.171-.016-.17-.017-.169-.018-.167-.019-.166-.02-.165-.021-.163-.022-.162-.023-.161-.024-.159-.025-.157-.026-.156-.027-.155-.028-.153-.028-.151-.03-.15-.03-.148-.031-.146-.033-.145-.033-.143-.033-.141-.035-.14-.036-.137-.036-.136-.037-.134-.038-.132-.039-.13-.039-.128-.04-.126-.041-.124-.042-.122-.043-.12-.043-.117-.044-.116-.044-.113-.046-.112-.046-.109-.046-.106-.047-.105-.048-.102-.049-.1-.049-.097-.05-.095-.051-.093-.051-.09-.051-.087-.053-.085-.052-.083-.054-.08-.054-.077-.054v4.139zm0-5.666v.011l.001.02.003.022.004.021.005.022.006.021.007.022.009.023.01.022.011.023.012.023.013.023.015.023.016.024.017.024.018.023.019.024.021.025.022.024.023.024.024.025.052.05.056.05.061.05.066.051.07.051.075.052.079.051.084.052.088.052.092.052.097.052.102.052.105.051.11.052.114.051.119.051.123.051.127.05.131.05.135.05.139.049.144.048.147.048.152.047.155.046.16.045.163.045.167.043.171.043.176.042.178.04.183.04.187.038.19.037.194.036.197.034.202.033.204.032.209.03.212.028.216.027.219.025.222.024.226.021.23.02.233.018.236.017.24.014.243.012.246.01.249.008.253.006.256.003.259.001.26-.001.257-.003.254-.006.25-.008.247-.01.244-.013.241-.014.237-.016.233-.018.231-.02.226-.022.224-.024.22-.025.216-.027.212-.029.21-.03.205-.032.202-.033.198-.035.194-.036.191-.037.187-.039.183-.039.179-.041.175-.042.172-.043.168-.044.163-.045.16-.045.155-.047.152-.047.148-.048.143-.049.139-.049.136-.049.131-.051.126-.05.123-.051.118-.052.114-.051.11-.052.106-.052.101-.052.096-.052.092-.052.088-.052.083-.052.079-.052.074-.052.07-.051.065-.051.06-.051.056-.05.051-.049.023-.025.023-.025.021-.024.02-.024.019-.024.018-.024.017-.024.015-.023.014-.024.013-.023.012-.023.01-.022.01-.023.008-.022.006-.022.006-.022.004-.022.004-.021.001-.021.001-.021v-4.153l-.077.054-.08.054-.083.053-.085.053-.087.053-.09.051-.093.051-.095.051-.097.05-.1.049-.102.048-.105.048-.106.048-.109.046-.111.046-.114.046-.115.044-.118.044-.12.043-.122.043-.124.042-.126.041-.128.04-.13.039-.132.039-.134.038-.135.037-.138.036-.139.036-.142.034-.143.034-.144.033-.147.032-.148.032-.15.03-.151.03-.153.028-.154.028-.156.027-.158.026-.159.024-.161.024-.162.023-.163.023-.165.021-.166.02-.167.019-.169.018-.169.017-.171.016-.173.015-.173.014-.175.013-.175.012-.177.01-.178.01-.179.009-.179.007-.181.006-.182.006-.182.004-.184.003-.184.001-.185.001-.185-.001-.184-.001-.184-.003-.182-.004-.182-.006-.181-.006-.179-.007-.179-.009-.178-.01-.176-.01-.176-.012-.175-.013-.173-.014-.172-.015-.171-.016-.17-.017-.169-.018-.167-.019-.166-.02-.165-.021-.163-.023-.162-.023-.161-.024-.159-.024-.157-.026-.156-.027-.155-.028-.153-.028-.151-.03-.15-.03-.148-.032-.146-.032-.145-.033-.143-.034-.141-.034-.14-.036-.137-.036-.136-.037-.134-.038-.132-.039-.13-.039-.128-.041-.126-.041-.124-.041-.122-.043-.12-.043-.117-.044-.116-.044-.113-.046-.112-.046-.109-.046-.106-.048-.105-.048-.102-.048-.1-.05-.097-.049-.095-.051-.093-.051-.09-.052-.087-.052-.085-.053-.083-.053-.08-.054-.077-.054v4.153zm8.74-8.179l-.257.004-.254.005-.25.008-.247.011-.244.012-.241.014-.237.016-.233.018-.231.021-.226.022-.224.023-.22.026-.216.027-.212.028-.21.031-.205.032-.202.033-.198.034-.194.036-.191.038-.187.038-.183.04-.179.041-.175.042-.172.043-.168.043-.163.045-.16.046-.155.046-.152.048-.148.048-.143.048-.139.049-.136.05-.131.05-.126.051-.123.051-.118.051-.114.052-.11.052-.106.052-.101.052-.096.052-.092.052-.088.052-.083.052-.079.052-.074.051-.07.052-.065.051-.06.05-.056.05-.051.05-.023.025-.023.024-.021.024-.02.025-.019.024-.018.024-.017.023-.015.024-.014.023-.013.023-.012.023-.01.023-.01.022-.008.022-.006.023-.006.021-.004.022-.004.021-.001.021-.001.021.001.021.001.021.004.021.004.022.006.021.006.023.008.022.01.022.01.023.012.023.013.023.014.023.015.024.017.023.018.024.019.024.02.025.021.024.023.024.023.025.051.05.056.05.06.05.065.051.07.052.074.051.079.052.083.052.088.052.092.052.096.052.101.052.106.052.11.052.114.052.118.051.123.051.126.051.131.05.136.05.139.049.143.048.148.048.152.048.155.046.16.046.163.045.168.043.172.043.175.042.179.041.183.04.187.038.191.038.194.036.198.034.202.033.205.032.21.031.212.028.216.027.22.026.224.023.226.022.231.021.233.018.237.016.241.014.244.012.247.011.25.008.254.005.257.004.26.001.26-.001.257-.004.254-.005.25-.008.247-.011.244-.012.241-.014.237-.016.233-.018.231-.021.226-.022.224-.023.22-.026.216-.027.212-.028.21-.031.205-.032.202-.033.198-.034.194-.036.191-.038.187-.038.183-.04.179-.041.175-.042.172-.043.168-.043.163-.045.16-.046.155-.046.152-.048.148-.048.143-.048.139-.049.136-.05.131-.05.126-.051.123-.051.118-.051.114-.052.11-.052.106-.052.101-.052.096-.052.092-.052.088-.052.083-.052.079-.052.074-.051.07-.052.065-.051.06-.05.056-.05.051-.05.023-.025.023-.024.021-.024.02-.025.019-.024.018-.024.017-.023.015-.024.014-.023.013-.023.012-.023.01-.023.01-.022.008-.022.006-.023.006-.021.004-.022.004-.021.001-.021.001-.021-.001-.021-.001-.021-.004-.021-.004-.022-.006-.021-.006-.023-.008-.022-.01-.022-.01-.023-.012-.023-.013-.023-.014-.023-.015-.024-.017-.023-.018-.024-.019-.024-.02-.025-.021-.024-.023-.024-.023-.025-.051-.05-.056-.05-.06-.05-.065-.051-.07-.052-.074-.051-.079-.052-.083-.052-.088-.052-.092-.052-.096-.052-.101-.052-.106-.052-.11-.052-.114-.052-.118-.051-.123-.051-.126-.051-.131-.05-.136-.05-.139-.049-.143-.048-.148-.048-.152-.048-.155-.046-.16-.046-.163-.045-.168-.043-.172-.043-.175-.042-.179-.041-.183-.04-.187-.038-.191-.038-.194-.036-.198-.034-.202-.033-.205-.032-.21-.031-.212-.028-.216-.027-.22-.026-.224-.023-.226-.022-.231-.021-.233-.018-.237-.016-.241-.014-.244-.012-.247-.011-.25-.008-.254-.005-.257-.004-.26-.001-.26.001z"/></symbol></defs><defs><symbol id="clock" width="24" height="24"><path transform="scale(.5)" d="M12 2c5.514 0 10 4.486 10 10s-4.486 10-10 10-10-4.486-10-10 4.486-10 10-10zm0-2c-6.627 0-12 5.373-12 12s5.373 12 12 12 12-5.373 12-12-5.373-12-12-12zm5.848 12.459c.202.038.202.333.001.372-1.907.361-6.045 1.111-6.547 1.111-.719 0-1.301-.582-1.301-1.301 0-.512.77-5.447 1.125-7.445.034-.192.312-.181.343.014l.985 6.238 5.394 1.011z"/></symbol></defs><defs><marker id="arrowhead" refX="7.9" refY="5" markerUnits="userSpaceOnUse" markerWidth="12" markerHeight="12" orient="auto-start-reverse"><path d="M -1 0 L 10 5 L 0 10 z"/></marker></defs><defs><marker id="crosshead" markerWidth="15" markerHeight="8" orient="auto" refX="4" refY="4.5"><path fill="none" stroke="#000000" stroke-width="1pt" d="M 1,2 L 6,7 M 6,2 L 1,7" style="stroke-dasharray: 0, 0;"/></marker></defs><defs><marker id="filled-head" refX="15.5" refY="7" markerWidth="20" markerHeight="28" orient="auto"><path d="M 18,7 L9,13 L14,7 L9,1 Z"/></marker></defs><defs><marker id="sequencenumber" refX="15" refY="15" markerWidth="60" markerHeight="40" orient="auto"><circle cx="15" cy="15" r="6"/></marker></defs><defs><marker id="solidTopArrowHead" refX="7.9" refY="7.25" markerUnits="userSpaceOnUse" markerWidth="12" markerHeight="12" orient="auto-start-reverse"><path d="M 0 0 L 10 8 L 0 8 z"/></marker></defs><defs><marker id="solidBottomArrowHead" refX="7.9" refY="0.75" markerUnits="userSpaceOnUse" markerWidth="12" markerHeight="12" orient="auto-start-reverse"><path d="M 0 0 L 10 0 L 0 8 z"/></marker></defs><defs><marker id="stickTopArrowHead" refX="7.5" refY="7" markerUnits="userSpaceOnUse" markerWidth="12" markerHeight="12" orient="auto-start-reverse"><path d="M 0 0 L 7 7" stroke="black" stroke-width="1.5" fill="none"/></marker></defs><defs><marker id="stickBottomArrowHead" refX="7.5" refY="0" markerUnits="userSpaceOnUse" markerWidth="12" markerHeight="12" orient="auto-start-reverse"><path d="M 0 7 L 7 0" stroke="black" stroke-width="1.5" fill="none"/></marker></defs><g><rect x="649" y="170" fill="#EDF2AE" stroke="#666" width="200" height="45" class="note"/><text x="749" y="176" text-anchor="middle" dominant-baseline="middle" alignment-baseline="middle" class="noteText" dy="1em" style="font-size: 28px; font-weight: 400;"><tspan x="749">st.cache_data TTL=900s</tspan></text></g><g><rect x="939" y="269" fill="#EDF2AE" stroke="#666" width="200" height="45" class="note"/><text x="1039" y="275" text-anchor="middle" dominant-baseline="middle" alignment-baseline="middle" class="noteText" dy="1em" style="font-size: 28px; font-weight: 400;"><tspan x="1039">create_mcp_server</tspan></text></g><g><rect x="939" y="412" fill="#EDF2AE" stroke="#666" width="200" height="45" class="note"/><text x="1039" y="418" text-anchor="middle" dominant-baseline="middle" alignment-baseline="middle" class="noteText" dy="1em" style="font-size: 28px; font-weight: 400;"><tspan x="1039">filter cloud CVEs</tspan></text></g><g><rect x="1519" y="819" fill="#EDF2AE" stroke="#666" width="200" height="45" class="note"/><text x="1619" y="825" text-anchor="middle" dominant-baseline="middle" alignment-baseline="middle" class="noteText" dy="1em" style="font-size: 28px; font-weight: 400;"><tspan x="1619">@traceable → LangSmith</tspan></text></g><g><rect x="1789" y="918" fill="#EDF2AE" stroke="#666" width="240" height="45" class="note"/><text x="1909" y="924" text-anchor="middle" dominant-baseline="middle" alignment-baseline="middle" class="noteText" dy="1em" style="font-size: 28px; font-weight: 400;"><tspan x="1909">OpenAI/Azure/Anthropic/Google</tspan></text></g><g class="actor-man actor-top" name="U"><line id="actor-man-torso0" x1="100" y1="25" x2="100" y2="45"/><line id="actor-man-arms0" x1="82" y1="33" x2="118" y2="33"/><line x1="82" y1="60" x2="100" y2="45"/><line x1="100" y1="45" x2="116" y2="60"/><circle cx="100" cy="10" r="15" width="200" height="72"/><text x="100" y="71" dominant-baseline="central" alignment-baseline="central" class="actor actor-man" style="text-anchor: middle; font-size: 28px; font-weight: 400;"><tspan x="100" dy="0">👤 Security Engineer</tspan></text></g><text x="278" y="77.0" text-anchor="middle" dominant-baseline="middle" alignment-baseline="middle" class="messageText" dy="1em" style="font-size: 28px; font-weight: 400;">Open application</text><line x1="101" y1="116" x2="455" y2="116" class="messageLine0" stroke-width="2" stroke="none" marker-end="url(#arrowhead)" style="fill: none;"/><circle r="6" fill="#fbbf24" stroke="#b45309" stroke-width="1.5" opacity="0.9"><animateMotion dur="2.5s" repeatCount="indefinite" rotate="auto" path="M 101 116 L 455 116"/></circle><text x="603" y="121.0" text-anchor="middle" dominant-baseline="middle" alignment-baseline="middle" class="messageText" dy="1em" style="font-size: 28px; font-weight: 400;">_load_mcp_context()</text><line x1="460" y1="160" x2="745" y2="160" class="messageLine0" stroke-width="2" stroke="none" marker-end="url(#arrowhead)" style="fill: none;"/><circle r="6" fill="#fbbf24" stroke="#b45309" stroke-width="1.5" opacity="0.9"><animateMotion dur="2.5s" repeatCount="indefinite" rotate="auto" path="M 460 160 L 745 160"/></circle><text x="893" y="220.0" text-anchor="middle" dominant-baseline="middle" alignment-baseline="middle" class="messageText" dy="1em" style="font-size: 28px; font-weight: 400;">MCPClient (HTTP or stdio)</text><line x1="750" y1="259" x2="1035" y2="259" class="messageLine0" stroke-width="2" stroke="none" marker-end="url(#arrowhead)" style="fill: none;"/><circle r="6" fill="#fbbf24" stroke="#b45309" stroke-width="1.5" opacity="0.9"><animateMotion dur="2.5s" repeatCount="indefinite" rotate="auto" path="M 750 259 L 1035 259"/></circle><text x="1183" y="319.0" text-anchor="middle" dominant-baseline="middle" alignment-baseline="middle" class="messageText" dy="1em" style="font-size: 28px; font-weight: 400;">GET vulnerabilities.json</text><line x1="1040" y1="358" x2="1325" y2="358" class="messageLine0" stroke-width="2" stroke="none" marker-end="url(#arrowhead)" style="fill: none;"/><circle r="6" fill="#fbbf24" stroke="#b45309" stroke-width="1.5" opacity="0.9"><animateMotion dur="2.5s" repeatCount="indefinite" rotate="auto" path="M 1040 358 L 1325 358"/></circle><text x="1186" y="363.0" text-anchor="middle" dominant-baseline="middle" alignment-baseline="middle" class="messageText" dy="1em" style="font-size: 28px; font-weight: 400;">KEV JSON feed</text><line x1="1328" y1="402" x2="1043" y2="402" class="messageLine1" stroke-width="2" stroke="none" marker-end="url(#arrowhead)" style="stroke-dasharray: 3, 3; fill: none;"/><circle r="6" fill="#fbbf24" stroke="#b45309" stroke-width="1.5" opacity="0.9"><animateMotion dur="2.5s" repeatCount="indefinite" rotate="auto" path="M 1328 402 L 1043 402"/></circle><text x="896" y="462.0" text-anchor="middle" dominant-baseline="middle" alignment-baseline="middle" class="messageText" dy="1em" style="font-size: 28px; font-weight: 400;">list primitives</text><line x1="1038" y1="501" x2="753" y2="501" class="messageLine1" stroke-width="2" stroke="none" marker-end="url(#arrowhead)" style="stroke-dasharray: 3, 3; fill: none;"/><circle r="6" fill="#fbbf24" stroke="#b45309" stroke-width="1.5" opacity="0.9"><animateMotion dur="2.5s" repeatCount="indefinite" rotate="auto" path="M 1038 501 L 753 501"/></circle><text x="896" y="506.0" text-anchor="middle" dominant-baseline="middle" alignment-baseline="middle" class="messageText" dy="1em" style="font-size: 28px; font-weight: 400;">get_live_cisa_threats</text><line x1="1038" y1="545" x2="753" y2="545" class="messageLine1" stroke-width="2" stroke="none" marker-end="url(#arrowhead)" style="stroke-dasharray: 3, 3; fill: none;"/><circle r="6" fill="#fbbf24" stroke="#b45309" stroke-width="1.5" opacity="0.9"><animateMotion dur="2.5s" repeatCount="indefinite" rotate="auto" path="M 1038 545 L 753 545"/></circle><text x="896" y="550.0" text-anchor="middle" dominant-baseline="middle" alignment-baseline="middle" class="messageText" dy="1em" style="font-size: 28px; font-weight: 400;">get_prompt audit_prompt</text><line x1="1038" y1="589" x2="753" y2="589" class="messageLine1" stroke-width="2" stroke="none" marker-end="url(#arrowhead)" style="stroke-dasharray: 3, 3; fill: none;"/><circle r="6" fill="#fbbf24" stroke="#b45309" stroke-width="1.5" opacity="0.9"><animateMotion dur="2.5s" repeatCount="indefinite" rotate="auto" path="M 1038 589 L 753 589"/></circle><text x="606" y="594.0" text-anchor="middle" dominant-baseline="middle" alignment-baseline="middle" class="messageText" dy="1em" style="font-size: 28px; font-weight: 400;">mcp_context dict</text><line x1="748" y1="633" x2="463" y2="633" class="messageLine1" stroke-width="2" stroke="none" marker-end="url(#arrowhead)" style="stroke-dasharray: 3, 3; fill: none;"/><circle r="6" fill="#fbbf24" stroke="#b45309" stroke-width="1.5" opacity="0.9"><animateMotion dur="2.5s" repeatCount="indefinite" rotate="auto" path="M 748 633 L 463 633"/></circle><text x="281" y="638.0" text-anchor="middle" dominant-baseline="middle" alignment-baseline="middle" class="messageText" dy="1em" style="font-size: 28px; font-weight: 400;">Sidebar: CISA threats + transport label</text><line x1="458" y1="677" x2="104" y2="677" class="messageLine1" stroke-width="2" stroke="none" marker-end="url(#arrowhead)" style="stroke-dasharray: 3, 3; fill: none;"/><circle r="6" fill="#fbbf24" stroke="#b45309" stroke-width="1.5" opacity="0.9"><animateMotion dur="2.5s" repeatCount="indefinite" rotate="auto" path="M 458 677 L 104 677"/></circle><text x="278" y="682.0" text-anchor="middle" dominant-baseline="middle" alignment-baseline="middle" class="messageText" dy="1em" style="font-size: 28px; font-weight: 400;">Upload diagram PNG/JPG</text><line x1="101" y1="721" x2="455" y2="721" class="messageLine0" stroke-width="2" stroke="none" marker-end="url(#arrowhead)" style="fill: none;"/><circle r="6" fill="#fbbf24" stroke="#b45309" stroke-width="1.5" opacity="0.9"><animateMotion dur="2.5s" repeatCount="indefinite" rotate="auto" path="M 101 721 L 455 721"/></circle><text x="278" y="726.0" text-anchor="middle" dominant-baseline="middle" alignment-baseline="middle" class="messageText" dy="1em" style="font-size: 28px; font-weight: 400;">Click Analyze</text><line x1="101" y1="765" x2="455" y2="765" class="messageLine0" stroke-width="2" stroke="none" marker-end="url(#arrowhead)" style="fill: none;"/><circle r="6" fill="#fbbf24" stroke="#b45309" stroke-width="1.5" opacity="0.9"><animateMotion dur="2.5s" repeatCount="indefinite" rotate="auto" path="M 101 765 L 455 765"/></circle><text x="1038" y="770.0" text-anchor="middle" dominant-baseline="middle" alignment-baseline="middle" class="messageText" dy="1em" style="font-size: 28px; font-weight: 400;">run_security_audit()</text><line x1="460" y1="809" x2="1615" y2="809" class="messageLine0" stroke-width="2" stroke="none" marker-end="url(#arrowhead)" style="fill: none;"/><circle r="6" fill="#fbbf24" stroke="#b45309" stroke-width="1.5" opacity="0.9"><animateMotion dur="2.5s" repeatCount="indefinite" rotate="auto" path="M 460 809 L 1615 809"/></circle><text x="1763" y="869.0" text-anchor="middle" dominant-baseline="middle" alignment-baseline="middle" class="messageText" dy="1em" style="font-size: 28px; font-weight: 400;">image + audit_prompt</text><line x1="1620" y1="908" x2="1905" y2="908" class="messageLine0" stroke-width="2" stroke="none" marker-end="url(#arrowhead)" style="fill: none;"/><circle r="6" fill="#fbbf24" stroke="#b45309" stroke-width="1.5" opacity="0.9"><animateMotion dur="2.5s" repeatCount="indefinite" rotate="auto" path="M 1620 908 L 1905 908"/></circle><text x="1766" y="968.0" text-anchor="middle" dominant-baseline="middle" alignment-baseline="middle" class="messageText" dy="1em" style="font-size: 28px; font-weight: 400;">Markdown report</text><line x1="1908" y1="1007" x2="1623" y2="1007" class="messageLine1" stroke-width="2" stroke="none" marker-end="url(#arrowhead)" style="stroke-dasharray: 3, 3; fill: none;"/><circle r="6" fill="#fbbf24" stroke="#b45309" stroke-width="1.5" opacity="0.9"><animateMotion dur="2.5s" repeatCount="indefinite" rotate="auto" path="M 1908 1007 L 1623 1007"/></circle><text x="1041" y="1012.0" text-anchor="middle" dominant-baseline="middle" alignment-baseline="middle" class="messageText" dy="1em" style="font-size: 28px; font-weight: 400;">Markdown report</text><line x1="1618" y1="1051" x2="463" y2="1051" class="messageLine1" stroke-width="2" stroke="none" marker-end="url(#arrowhead)" style="stroke-dasharray: 3, 3; fill: none;"/><circle r="6" fill="#fbbf24" stroke="#b45309" stroke-width="1.5" opacity="0.9"><animateMotion dur="2.5s" repeatCount="indefinite" rotate="auto" path="M 1618 1051 L 463 1051"/></circle><text x="281" y="1056.0" text-anchor="middle" dominant-baseline="middle" alignment-baseline="middle" class="messageText" dy="1em" style="font-size: 28px; font-weight: 400;">Security report</text><line x1="458" y1="1095" x2="104" y2="1095" class="messageLine1" stroke-width="2" stroke="none" marker-end="url(#arrowhead)" style="stroke-dasharray: 3, 3; fill: none;"/><circle r="6" fill="#fbbf24" stroke="#b45309" stroke-width="1.5" opacity="0.9"><animateMotion dur="2.5s" repeatCount="indefinite" rotate="auto" path="M 458 1095 L 104 1095"/></circle><g class="actor-man actor-bottom" name="U"><line id="actor-man-torso6" x1="100" y1="1140" x2="100" y2="1160"/><line id="actor-man-arms6" x1="82" y1="1148" x2="118" y2="1148"/><line x1="82" y1="1175" x2="100" y2="1160"/><line x1="100" y1="1160" x2="116" y2="1175"/><circle cx="100" cy="1125" r="15" width="200" height="65"/><text x="100" y="1182.5" dominant-baseline="central" alignment-baseline="central" class="actor actor-man" style="text-anchor: middle; font-size: 28px; font-weight: 400;"><tspan x="100" dy="0">👤 Security Engineer</tspan></text></g></svg>